<?xml version="1.0" encoding="utf-8"?>
<svg viewBox="1.019 0.0225 45.9789 46.9775" width="45.9789" height="46.9775" xmlns="http://www.w3.org/2000/svg">
  <g featurekey="symbolFeature-0" transform="matrix(0.4545450210571289, 0, 0, 0.4545450210571289, 0.7917079329490662, 1.7009549140930176)" fill="#737373">
    <g xmlns="http://www.w3.org/2000/svg">
      <g>
        <path d="M50,99.658L0.5,70.699V29.301L50,0.341l49.5,28.959v41.398L50,99.658z M2.5,69.553L50,97.342l47.5-27.789V30.448L50,2.659    L2.5,30.448V69.553z"/>
      </g>
      <g>
        <polygon points="51,98.376 49,98.376 49,58.822 0.995,30.738 2.005,29.011 50,57.091 97.995,29.011 99.005,30.738 51,58.822   "/>
      </g>
      <g>
        <polyline points="28.494,14.082 76.994,42.457 71.506,45.667 23.006,17.292   "/>
        <polygon points="71.507,46.246 71.254,46.098 22.754,17.724 23.259,16.861 71.507,45.087 76.003,42.457 28.241,14.514     28.746,13.65 77.983,42.457   "/>
      </g>
      <g>
        <polyline points="71.506,45.667 71.506,57.982 71.51,57.982 76.993,54.775 76.993,42.457   "/>
        <polyline points="71.006,45.667 72.006,45.667 72.006,57.113 76.493,54.487 76.493,42.457 77.493,42.457 77.493,55.062     71.646,58.482 71,58.85   "/>
      </g>
    </g>
  </g>
  <g featurekey="nameFeature-0" transform="matrix(1.6160469055175781, 0, 0, 1.6160469055175781, 3.2854819297790527, -21.369783401489258)" fill="#a6a6a6">
    <path d="M10.904 40.4028 c-5.316 0 -9.2256 -3.048 -9.2256 -6.6192 c0 -1.8592 1.2372 -2.8152 2.5116 -2.8152 c1.0924 0 2.2288 0.7184 2.2288 2.1488 c0 1.4428 -1.4112 1.9972 -1.4112 2.9972 c0 1.782 2.974 3.0552 5.338 3.0552 c3.244 0 6.382 -1.5736 6.382 -5.102 c0 -6.2716 -14.403 -3.6536 -14.403 -13.229 c0 -5.0924 4.3436 -7.6012 9.9036 -7.6012 c4.7364 0 8.9656 2.6496 8.9656 6.1048 c0 1.946 -1.2372 2.9308 -2.4828 2.9308 c-1.1216 0 -2.258 -0.7476 -2.258 -2.178 c0 -1.5584 1.382 -1.8812 1.382 -2.8812 c0 -1.6952 -2.974 -2.7436 -5.3092 -2.7436 c-3.04 0 -5.9296 1.1848 -5.9296 4.6496 c0 5.866 15.193 3.7708 15.193 13.345 c0 4.0208 -3.8304 7.938 -10.886 7.938 z"/>
  </g>
</svg>